<svg width="248" height="248" viewBox="0 0 248 248" fill="none" xmlns="http://www.w3.org/2000/svg">
<rect width="247.97" height="247.97" rx="28.5376" fill="#FCB72F"/>
<path d="M107.189 111.988C119.343 99.598 133.208 93.403 148.784 93.403C162.826 93.403 173.977 98.241 182.237 107.917C189.317 116.059 192.857 126.148 192.857 138.184V142.432C192.857 153.524 189.671 161.961 183.299 167.743C177.989 172.581 170.909 175 162.059 175H47.54L58.868 153.583H82.94C83.412 151.931 84.061 150.102 84.887 148.096V72.694L107.189 60.835V111.988ZM170.732 141.547V138.184C170.732 131.104 168.667 125.322 164.537 120.838C160.525 116.354 155.333 114.112 148.961 114.112C140.701 114.112 132.854 117.18 125.42 123.316C118.104 129.334 112.027 137.712 107.189 148.45V153.583H161.174C165.068 153.583 167.605 152.816 168.785 151.282C170.083 149.748 170.732 146.503 170.732 141.547Z" fill="black"/>
</svg>
