<svg width="1706" height="303" viewBox="0 0 1706 303" fill="none" xmlns="http://www.w3.org/2000/svg">
<path d="M368.017 242V60.1818H477.037V79.7131H390.034V141.148H468.869V160.679H390.034V242H368.017ZM511.905 242V105.636H532.856V242H511.905ZM522.558 82.9091C518.474 82.9091 514.953 81.5182 511.993 78.7365C509.093 75.9548 507.643 72.6108 507.643 68.7045C507.643 64.7983 509.093 61.4543 511.993 58.6726C514.953 55.8909 518.474 54.5 522.558 54.5C526.642 54.5 530.134 55.8909 533.034 58.6726C535.993 61.4543 537.473 64.7983 537.473 68.7045C537.473 72.6108 535.993 75.9548 533.034 78.7365C530.134 81.5182 526.642 82.9091 522.558 82.9091ZM682.737 105.636L632.31 242H611.004L560.577 105.636H583.305L620.947 214.301H622.367L660.009 105.636H682.737ZM762.681 244.841C749.542 244.841 738.208 241.941 728.679 236.141C719.21 230.281 711.9 222.114 706.751 211.638C701.661 201.103 699.116 188.851 699.116 174.884C699.116 160.916 701.661 148.605 706.751 137.952C711.9 127.239 719.062 118.894 728.235 112.916C737.468 106.879 748.24 103.861 760.551 103.861C767.653 103.861 774.667 105.045 781.591 107.412C788.516 109.779 794.819 113.626 800.501 118.953C806.183 124.221 810.711 131.205 814.084 139.905C817.458 148.605 819.145 159.318 819.145 172.043V180.92H714.031V162.81H797.838C797.838 155.116 796.299 148.25 793.221 142.213C790.203 136.176 785.882 131.412 780.26 127.92C774.696 124.428 768.127 122.682 760.551 122.682C752.206 122.682 744.985 124.753 738.889 128.896C732.852 132.98 728.206 138.307 724.951 144.876C721.695 151.446 720.068 158.489 720.068 166.006V178.08C720.068 188.378 721.843 197.108 725.395 204.269C729.005 211.371 734.006 216.787 740.398 220.516C746.79 224.185 754.218 226.02 762.681 226.02C768.186 226.02 773.157 225.25 777.596 223.712C782.094 222.114 785.971 219.746 789.226 216.609C792.481 213.413 794.997 209.448 796.772 204.713L817.014 210.395C814.883 217.26 811.302 223.297 806.272 228.506C801.241 233.655 795.026 237.679 787.628 240.58C780.23 243.42 771.914 244.841 762.681 244.841ZM931.627 242H908.544L975.306 60.1818H998.033L1064.79 242H1041.71L987.38 88.946H985.959L931.627 242ZM940.15 170.977H1033.19V190.509H940.15V170.977ZM1111.23 159.969V242H1090.27V105.636H1110.52V126.943H1112.29C1115.49 120.018 1120.34 114.455 1126.85 110.253C1133.36 105.991 1141.77 103.861 1152.06 103.861C1161.3 103.861 1169.38 105.755 1176.3 109.543C1183.22 113.271 1188.61 118.953 1192.46 126.588C1196.3 134.164 1198.23 143.752 1198.23 155.352V242H1177.28V156.773C1177.28 146.06 1174.49 137.715 1168.93 131.737C1163.37 125.7 1155.73 122.682 1146.03 122.682C1139.34 122.682 1133.36 124.132 1128.09 127.032C1122.89 129.932 1118.77 134.164 1115.75 139.727C1112.73 145.291 1111.23 152.038 1111.23 159.969ZM1291.56 295.977C1281.44 295.977 1272.74 294.675 1265.46 292.071C1258.18 289.526 1252.11 286.152 1247.26 281.95C1242.46 277.807 1238.64 273.368 1235.8 268.634L1252.49 256.915C1254.39 259.401 1256.79 262.241 1259.69 265.438C1262.59 268.693 1266.55 271.504 1271.58 273.871C1276.67 276.298 1283.33 277.511 1291.56 277.511C1302.57 277.511 1311.65 274.848 1318.81 269.521C1325.97 264.195 1329.55 255.849 1329.55 244.486V216.787H1327.78C1326.24 219.273 1324.05 222.35 1321.21 226.02C1318.43 229.63 1314.4 232.856 1309.13 235.697C1303.93 238.478 1296.88 239.869 1288.01 239.869C1277 239.869 1267.11 237.265 1258.35 232.057C1249.65 226.848 1242.76 219.273 1237.67 209.33C1232.64 199.386 1230.12 187.312 1230.12 173.108C1230.12 159.14 1232.58 146.978 1237.49 136.62C1242.4 126.203 1249.24 118.154 1258 112.472C1266.76 106.731 1276.88 103.861 1288.36 103.861C1297.24 103.861 1304.28 105.34 1309.49 108.3C1314.76 111.2 1318.78 114.514 1321.56 118.243C1324.4 121.912 1326.59 124.931 1328.13 127.298H1330.26V105.636H1350.51V245.906C1350.51 257.625 1347.84 267.154 1342.52 274.493C1337.25 281.891 1330.15 287.307 1321.21 290.739C1312.33 294.231 1302.45 295.977 1291.56 295.977ZM1290.85 221.048C1299.25 221.048 1306.35 219.125 1312.15 215.278C1317.95 211.431 1322.36 205.897 1325.38 198.676C1328.4 191.455 1329.91 182.814 1329.91 172.753C1329.91 162.928 1328.43 154.257 1325.47 146.741C1322.51 139.224 1318.13 133.335 1312.33 129.074C1306.53 124.812 1299.37 122.682 1290.85 122.682C1281.97 122.682 1274.57 124.931 1268.65 129.429C1262.79 133.927 1258.38 139.964 1255.42 147.54C1252.52 155.116 1251.07 163.52 1251.07 172.753C1251.07 182.223 1252.55 190.597 1255.51 197.877C1258.53 205.098 1262.97 210.78 1268.83 214.923C1274.75 219.006 1282.09 221.048 1290.85 221.048ZM1409.81 60.1818V242H1388.86V60.1818H1409.81ZM1505.36 244.841C1492.22 244.841 1480.88 241.941 1471.36 236.141C1461.89 230.281 1454.58 222.114 1449.43 211.638C1444.34 201.103 1441.79 188.851 1441.79 174.884C1441.79 160.916 1444.34 148.605 1449.43 137.952C1454.58 127.239 1461.74 118.894 1470.91 112.916C1480.14 106.879 1490.92 103.861 1503.23 103.861C1510.33 103.861 1517.34 105.045 1524.27 107.412C1531.19 109.779 1537.5 113.626 1543.18 118.953C1548.86 124.221 1553.39 131.205 1556.76 139.905C1560.13 148.605 1561.82 159.318 1561.82 172.043V180.92H1456.71V162.81H1540.51C1540.51 155.116 1538.97 148.25 1535.9 142.213C1532.88 136.176 1528.56 131.412 1522.94 127.92C1517.37 124.428 1510.8 122.682 1503.23 122.682C1494.88 122.682 1487.66 124.753 1481.56 128.896C1475.53 132.98 1470.88 138.307 1467.63 144.876C1464.37 151.446 1462.74 158.489 1462.74 166.006V178.08C1462.74 188.378 1464.52 197.108 1468.07 204.269C1471.68 211.371 1476.68 216.787 1483.07 220.516C1489.47 224.185 1496.89 226.02 1505.36 226.02C1510.86 226.02 1515.83 225.25 1520.27 223.712C1524.77 222.114 1528.65 219.746 1531.9 216.609C1535.16 213.413 1537.67 209.448 1539.45 204.713L1559.69 210.395C1557.56 217.26 1553.98 223.297 1548.95 228.506C1543.92 233.655 1537.7 237.679 1530.3 240.58C1522.91 243.42 1514.59 244.841 1505.36 244.841ZM1690.28 136.176L1671.46 141.503C1670.28 138.366 1668.53 135.318 1666.22 132.359C1663.97 129.34 1660.9 126.854 1656.99 124.901C1653.08 122.948 1648.08 121.972 1641.99 121.972C1633.64 121.972 1626.69 123.895 1621.12 127.742C1615.62 131.53 1612.87 136.354 1612.87 142.213C1612.87 147.421 1614.76 151.535 1618.55 154.553C1622.34 157.572 1628.26 160.087 1636.31 162.099L1656.55 167.071C1668.74 170.03 1677.82 174.558 1683.8 180.654C1689.78 186.691 1692.77 194.474 1692.77 204.003C1692.77 211.815 1690.52 218.799 1686.02 224.955C1681.58 231.11 1675.37 235.963 1667.38 239.514C1659.39 243.065 1650.1 244.841 1639.5 244.841C1625.59 244.841 1614.08 241.822 1604.97 235.786C1595.85 229.749 1590.08 220.93 1587.65 209.33L1607.54 204.358C1609.44 211.697 1613.02 217.201 1618.28 220.871C1623.61 224.54 1630.56 226.375 1639.15 226.375C1648.91 226.375 1656.67 224.304 1662.41 220.161C1668.21 215.958 1671.11 210.928 1671.11 205.068C1671.11 200.333 1669.45 196.368 1666.13 193.172C1662.82 189.917 1657.73 187.49 1650.87 185.892L1628.14 180.565C1615.65 177.606 1606.48 173.019 1600.62 166.805C1594.82 160.531 1591.92 152.689 1591.92 143.278C1591.92 135.584 1594.08 128.778 1598.4 122.859C1602.78 116.941 1608.72 112.295 1616.24 108.921C1623.82 105.548 1632.4 103.861 1641.99 103.861C1655.48 103.861 1666.08 106.82 1673.77 112.739C1681.52 118.657 1687.03 126.47 1690.28 136.176Z" fill="#0F305F"/>
<rect y="45.9375" width="146.25" height="95.625" fill="#0F305F"/>
<rect x="144.844" y="287.812" width="147.656" height="97.0312" transform="rotate(-90 144.844 287.812)" fill="#0F305F"/>
<rect x="174.375" y="15" width="46.4062" height="97.0312" fill="#FF1C45"/>
<rect x="220.781" y="65.625" width="49.2188" height="46.4062" fill="#FF1C45"/>
</svg>
